<?xml version="1.0" encoding="utf-8"?>
<!-- Generator: Adobe Illustrator 16.0.0, SVG Export Plug-In . SVG Version: 6.00 Build 0)  -->
<!DOCTYPE svg PUBLIC "-//W3C//DTD SVG 1.1//EN" "http://www.w3.org/Graphics/SVG/1.1/DTD/svg11.dtd">
<svg version="1.1" xmlns="http://www.w3.org/2000/svg" xmlns:xlink="http://www.w3.org/1999/xlink" x="0px" y="0px" width="48px"
	 height="48px" viewBox="0 0 48 48" enable-background="new 0 0 48 48" xml:space="preserve">
<g id="Layer_1">
	<path fill="#231F20" d="M42,12H6c-2.209,0-4,1.791-4,4v16c0,2.209,1.791,4,4,4h36c2.209,0,4-1.791,4-4V16
		C46,13.791,44.209,12,42,12L42,12z"/>
	<path fill="#FFFFFF" d="M42,14H6c-1.104,0-2,0.896-2,2v16c0,1.104,0.896,2,2,2h36c1.104,0,2-0.896,2-2V16
		C44,14.896,43.104,14,42,14L42,14z"/>
	<path fill="#231F20" d="M42,32H6V16h36V32z"/>
</g>
<g id="Layer_3" display="none">
	<path display="inline" fill="#FFFFFF" d="M40,4h-9c-0.553,0-1,0.448-1,1c0-0.552-0.447-1-1-1h-9c-0.552,0-1,0.448-1,1v2
		c0,0.552,0.448,1,1,1h8v32h-8c-0.552,0-1,0.447-1,1v2c0,0.553,0.448,1,1,1h9c0.553,0,1-0.447,1-1c0,0.553,0.447,1,1,1h9
		c0.553,0,1-0.447,1-1v-2c0-0.553-0.447-1-1-1h-8V8h8c0.553,0,1-0.448,1-1V5C41,4.448,40.553,4,40,4L40,4z"/>
	<path display="inline" fill="#231F20" d="M20,5h9v38h-9v-2h20v2h-9V5h9v2H20V5z"/>
</g>
<g id="Layer_4">
	<g>
		<path fill="#231F20" d="M35,43.5c-1.946,0-3.77-0.868-5-2.354c-1.23,1.485-3.054,2.354-5,2.354c-0.276,0-0.5-0.224-0.5-0.5v-2
			c0-0.276,0.224-0.5,0.5-0.5c1.93,0,3.5-1.57,3.5-3.5V11c0-1.93-1.57-3.5-3.5-3.5c-0.276,0-0.5-0.224-0.5-0.5V5
			c0-0.133,0.053-0.26,0.146-0.354S24.867,4.5,25,4.5c1.947,0,3.77,0.868,5,2.353C31.23,5.368,33.053,4.5,35,4.5
			c0.133,0,0.26,0.053,0.354,0.146S35.5,4.867,35.5,5v2c0,0.276-0.224,0.5-0.5,0.5c-1.93,0-3.5,1.57-3.5,3.5v26
			c0,1.93,1.57,3.5,3.5,3.5c0.276,0,0.5,0.224,0.5,0.5v2C35.5,43.276,35.276,43.5,35,43.5z"/>
		<path fill="#FFFFFF" d="M35,5v2c-2.209,0-4,1.791-4,4v26c0,2.209,1.791,4,4,4v2c-2.086,0-3.925-1.071-5-2.69
			C28.925,41.929,27.086,43,25,43v-2c2.209,0,4-1.791,4-4V11c0-2.209-1.791-4-4-4V5c2.086,0,3.925,1.071,5,2.69
			C31.075,6.071,32.914,5,35,5 M35,4c-1.902,0-3.694,0.77-5,2.106C28.694,4.77,26.902,4,25,4c-0.552,0-1,0.448-1,1v2
			c0,0.552,0.448,1,1,1c1.654,0,3,1.346,3,3v26c0,1.654-1.346,3-3,3c-0.552,0-1,0.447-1,1v2c0,0.553,0.448,1,1,1
			c1.902,0,3.694-0.77,5-2.106C31.306,43.23,33.098,44,35,44c0.553,0,1-0.447,1-1v-2c0-0.553-0.447-1-1-1c-1.654,0-3-1.346-3-3V11
			c0-1.654,1.346-3,3-3c0.553,0,1-0.448,1-1V5C36,4.448,35.553,4,35,4L35,4z"/>
	</g>
</g>
</svg>
