<?xml version="1.0" encoding="utf-8"?>
<!-- Generator: Adobe Illustrator 16.0.0, SVG Export Plug-In . SVG Version: 6.00 Build 0)  -->
<!DOCTYPE svg PUBLIC "-//W3C//DTD SVG 1.1//EN" "http://www.w3.org/Graphics/SVG/1.1/DTD/svg11.dtd">
<svg version="1.1" xmlns="http://www.w3.org/2000/svg" xmlns:xlink="http://www.w3.org/1999/xlink" x="0px" y="0px" width="48px"
	 height="48px" viewBox="0 0 48 48" enable-background="new 0 0 48 48" xml:space="preserve">
<g id="Layer_1">
	<path fill="#231F20" d="M42,12H6c-2.209,0-4,1.791-4,4v16c0,2.209,1.791,4,4,4h36c2.209,0,4-1.791,4-4V16
		C46,13.791,44.209,12,42,12L42,12z"/>
	<path fill="#FFFFFF" d="M42,14H6c-1.104,0-2,0.896-2,2v16c0,1.104,0.896,2,2,2h36c1.104,0,2-0.896,2-2V16
		C44,14.896,43.104,14,42,14L42,14z"/>
	<linearGradient id="SVGID_1_" gradientUnits="userSpaceOnUse" x1="6" y1="24" x2="42" y2="24">
		<stop  offset="0" style="stop-color:#66AAFF"/>
		<stop  offset="1" style="stop-color:#AAAAAA"/>
	</linearGradient>
	<path fill="url(#SVGID_1_)" d="M42,32H6V16h36V32z"/>
</g>
<g id="Layer_4">
	<path fill="#FFFFFF" d="M35,4c-1.902,0-3.694,0.77-5,2.106C28.694,4.77,26.902,4,25,4c-0.552,0-1,0.448-1,1v2c0,0.552,0.448,1,1,1
		c1.654,0,3,1.346,3,3v26c0,1.654-1.346,3-3,3c-0.552,0-1,0.447-1,1v2c0,0.553,0.448,1,1,1c1.902,0,3.694-0.77,5-2.106
		C31.306,43.23,33.098,44,35,44c0.553,0,1-0.447,1-1v-2c0-0.553-0.447-1-1-1c-1.654,0-3-1.346-3-3V11c0-1.654,1.346-3,3-3
		c0.553,0,1-0.448,1-1V5C36,4.448,35.553,4,35,4L35,4z"/>
	<path fill="#231F20" d="M35,7V5c-2.086,0-3.925,1.071-5,2.69C28.925,6.071,27.086,5,25,5v2c2.209,0,4,1.791,4,4v26
		c0,2.209-1.791,4-4,4v2c2.086,0,3.925-1.071,5-2.69c1.075,1.619,2.914,2.69,5,2.69v-2c-2.209,0-4-1.791-4-4V11
		C31,8.791,32.791,7,35,7z"/>
</g>
</svg>
