<?xml version="1.0" encoding="utf-8"?>
<!-- Generator: Adobe Illustrator 16.0.0, SVG Export Plug-In . SVG Version: 6.00 Build 0)  -->
<!DOCTYPE svg PUBLIC "-//W3C//DTD SVG 1.1//EN" "http://www.w3.org/Graphics/SVG/1.1/DTD/svg11.dtd">
<svg version="1.1" xmlns="http://www.w3.org/2000/svg" xmlns:xlink="http://www.w3.org/1999/xlink" x="0px" y="0px" width="32px"
	 height="32px" viewBox="0 0 32 32" enable-background="new 0 0 32 32" xml:space="preserve">
<g id="Layer_1">
	<path fill="#231F20" d="M26,8H6c-2.209,0-4,1.791-4,4v8c0,2.209,1.791,4,4,4h20c2.209,0,4-1.791,4-4v-8C30,9.791,28.209,8,26,8
		L26,8z"/>
	<path fill="#FFFFFF" d="M26,10H6c-1.104,0-2,0.896-2,2v8c0,1.104,0.896,2,2,2h20c1.104,0,2-0.896,2-2v-8C28,10.896,27.104,10,26,10
		L26,10z"/>
	<linearGradient id="SVGID_1_" gradientUnits="userSpaceOnUse" x1="6" y1="16" x2="26" y2="16">
		<stop  offset="0" style="stop-color:#66AAFF"/>
		<stop  offset="1" style="stop-color:#AAAAAA"/>
	</linearGradient>
	<path fill="url(#SVGID_1_)" d="M26,20H6v-8h20V20z"/>
</g>
<g id="Layer_4">
	<path fill="#FFFFFF" d="M25,2c-1.902,0-3.694,0.77-5,2.106C18.694,2.77,16.902,2,15,2c-0.552,0-1,0.448-1,1v2c0,0.552,0.448,1,1,1
		c1.654,0,3,1.346,3,3v14c0,1.654-1.346,3-3,3c-0.552,0-1,0.447-1,1v2c0,0.553,0.448,1,1,1c1.902,0,3.694-0.77,5-2.106
		C21.306,29.23,23.098,30,25,30c0.553,0,1-0.447,1-1v-2c0-0.553-0.447-1-1-1c-1.654,0-3-1.346-3-3V9c0-1.654,1.346-3,3-3
		c0.553,0,1-0.448,1-1V3C26,2.448,25.553,2,25,2L25,2z"/>
	<path fill="#231F20" d="M25,5V3c-2.086,0-3.925,1.071-5,2.69C18.925,4.071,17.086,3,15,3v2c2.209,0,4,1.791,4,4v14
		c0,2.209-1.791,4-4,4v2c2.086,0,3.925-1.071,5-2.69c1.075,1.619,2.914,2.69,5,2.69v-2c-2.209,0-4-1.791-4-4V9
		C21,6.791,22.791,5,25,5z"/>
</g>
</svg>
